<?xml version="1.0" encoding="UTF-8" standalone="no"?>
<!-- Uploaded to: SVG Repo, www.svgrepo.com, Generator: SVG Repo Mixer Tools -->

<svg
   height="800px"
   width="800px"
   version="1.1"
   id="Layer_1"
   viewBox="0 0 512 512"
   xml:space="preserve"
   sodipodi:docname="logo_icono.svg"
   inkscape:version="1.4.2 (f4327f4, 2025-05-13)"
   xmlns:inkscape="http://www.inkscape.org/namespaces/inkscape"
   xmlns:sodipodi="http://sodipodi.sourceforge.net/DTD/sodipodi-0.dtd"
   xmlns="http://www.w3.org/2000/svg"
   xmlns:svg="http://www.w3.org/2000/svg"><defs
   id="defs7" /><sodipodi:namedview
   id="namedview7"
   pagecolor="#505050"
   bordercolor="#ffffff"
   borderopacity="1"
   inkscape:showpageshadow="0"
   inkscape:pageopacity="0"
   inkscape:pagecheckerboard="1"
   inkscape:deskcolor="#505050"
   inkscape:zoom="0.499375"
   inkscape:cx="323.40426"
   inkscape:cy="433.54193"
   inkscape:window-width="1920"
   inkscape:window-height="1009"
   inkscape:window-x="1912"
   inkscape:window-y="-8"
   inkscape:window-maximized="1"
   inkscape:current-layer="Layer_1" />
<g
   id="g2"
   style="display:inline"
   transform="translate(-9.42,5.011)">
	<path
   style="display:inline;fill:#f3ddb9;stroke:#000000;stroke-opacity:1;fill-opacity:1"
   d="M 225.732,53.336 H 10.669 V 458.663 H 501.332 V 117.335 H 479.997 259.771 L 237.076,74.671 Z"
   id="path1"
   sodipodi:nodetypes="ccccccccc" />
	
	
	<polygon
   style="display:inline;fill:#61584a;fill-opacity:1"
   points="259.771,117.335 479.996,117.335 479.996,74.671 237.076,74.671 "
   id="polygon2" />
</g>
<g
   id="g7"
   style="display:inline">
	<path
   style="display:inline;fill:#000003"
   d="M 501.331,106.666 H 490.664 V 74.671 c 0,-5.892 -4.776,-10.669 -10.669,-10.669 H 243.49 l -8.339,-15.675 c -1.852,-3.482 -5.474,-5.659 -9.418,-5.659 H 10.669 C 4.777,42.668 0,47.444 0,53.336 v 405.327 c 0,5.892 4.777,10.669 10.669,10.669 h 490.663 c 5.891,0 10.669,-4.776 10.669,-10.669 V 117.335 C 512,111.442 507.223,106.666 501.331,106.666 Z M 469.327,85.339 v 21.327 H 266.181 L 254.837,85.339 Z m 21.336,362.656 H 21.337 V 64.005 h 197.985 l 8.331,15.664 c 0.025,0.049 0.05,0.098 0.077,0.146 l 22.621,42.531 c 1.852,3.482 5.476,5.659 9.42,5.659 h 230.891 z"
   id="path3" />
	<path
   style="display:inline;fill:#000003"
   d="m 163.558,106.677 c 5.89,0 10.669,-4.776 10.669,-10.669 0,-5.892 -4.779,-10.669 -10.669,-10.669 h -0.254 c -5.892,0 -10.669,4.776 -10.669,10.669 0,5.892 4.776,10.669 10.669,10.669 z"
   id="path4" />
	<path
   style="display:inline;fill:#000003"
   d="M 132.661,85.334 H 53.335 c -5.89,0 -10.669,4.776 -10.669,10.669 0,5.892 4.778,10.669 10.669,10.669 h 79.326 c 5.89,0 10.669,-4.776 10.669,-10.669 -0.001,-5.893 -4.779,-10.669 -10.669,-10.669 z"
   id="path5" />
	
	
<path
   style="display:inline;fill:#000003"
   d="m 190.27,106.677 c 5.89,0 10.669,-4.776 10.669,-10.669 0,-5.892 -4.779,-10.669 -10.669,-10.669 h -0.254 c -5.892,0 -10.669,4.776 -10.669,10.669 0,5.892 4.776,10.669 10.669,10.669 z"
   id="path7" /></g>
<g
   id="g8"><path
     style="display:inline;fill:#e8863b;stroke-width:1.4023"
     d="m 358.73783,265.63937 v -51.0717 c -33.73929,-9.03781 -66.5727,-22.80136 -97.83974,-40.85455 -30.88281,17.83303 -65.01054,32.05654 -97.83553,40.85455 v 51.0717 c 0,95.81341 62.65047,135.69337 97.83553,135.69337 35.18366,0 97.83974,-39.88136 97.83974,-135.69337 z"
     id="path2" /><path
     style="fill:#000003;stroke-width:1.4023"
     d="m 260.60361,416.89421 c 24.38596,0 52.4179,-14.0945 73.15789,-36.78368 18.08543,-19.78362 39.64296,-55.59972 39.64296,-113.87081 v -51.07169 c 0,-6.7717 -4.54765,-12.69921 -11.08797,-14.45068 -32.26688,-8.64517 -63.97284,-21.88707 -94.23302,-39.35971 -4.63039,-2.67278 -10.33073,-2.67137 -14.96252,0 -29.82548,17.22163 -62.40928,30.83093 -94.22882,39.35971 -6.53892,1.75287 -11.08657,7.67898 -11.08657,14.45068 v 51.07169 c 0,58.27109 21.55613,94.08719 39.64016,113.87081 20.73999,22.68918 48.77193,36.78368 73.15789,36.78368 z M 177.7278,226.46634 c 28.06979,-8.43622 56.37518,-20.3796 82.8716,-34.97471 26.77688,14.77882 54.57744,26.51184 82.88423,34.98313 v 39.76356 c 0,85.31861 -53.98006,120.73365 -82.88002,120.73365 -28.89856,0 -82.87441,-35.41504 -82.87441,-120.73365 v -39.77198 z"
     id="path4-9" /></g></svg>
